<svg xmlns="http://www.w3.org/2000/svg" width="120" height="100" fill="none"><path fill="#082C4E" d="m48.2 37.4-47.8 5 5 48 47.9-5-5-48Z" opacity=".2"/><path fill="#fff" d="M47.9 34 0 39l5 48 48-5.1L47.8 34Z"/><path stroke="#082C4E" stroke-linecap="round" stroke-linejoin="round" stroke-miterlimit="10" stroke-width="1.4" d="M40.8 57.9 10.4 61M21.4 66.7l-10 1.2M29.6 51.6 9.7 53.9"/><path fill="#082C4E" d="M109.8 68.5 62.3 61l7.5-46 47.6 7.4-7.6 46Z" opacity=".2"/><path fill="#FC0" d="M118.1 17.5 70.6 10 63 57.5l47.5 7.6 7.5-47.6Z"/><path fill="#3098F3" d="M78.4 29a5 5 0 1 0 0-10.2 5 5 0 0 0 0 10.2ZM99.5 51.8a5 5 0 1 0 0-10.1 5 5 0 0 0 0 10.1Z"/></svg>