<svg xmlns="http://www.w3.org/2000/svg" width="57" height="99" fill="none"><g clip-path="url(#a)"><path fill="#FC0" d="M51.9 77.2V53.4H0v23.8c0 10 6.3 18.5 15 21.9a16.3 16.3 0 0 0-8.7 14.5v8.4h39.1v-8.4c0-6.4-3.5-11.8-8.7-14.5 8.8-3.4 15-12 15-21.9Z"/><path stroke="#F2EAE2" stroke-linecap="round" stroke-linejoin="round" stroke-miterlimit="10" stroke-width="2" d="M9.4 18.7c5.8 11.7 10 24.2 12.5 37M26.6 54.6a104.6 104.6 0 0 1 17.4-41"/><path stroke="#F2EAE2" stroke-linecap="round" stroke-linejoin="round" stroke-miterlimit="10" stroke-width="2" d="M17.4 53c-2.8-3.4-5.5-7-8-10.8-1.6-2.5-5.6-9.5-2.4-10.4 1.9-.4 4.6 3.3 6.5 5.5A47.4 47.4 0 0 1 3.2 12.6c0-3.3 1-7 4-8.7 3.6-2.1 7 1.5 8.8 4.5 5.2 9 4 15.5 5.2 25.8.2-.8.4-3.3 1.7-3.3 4.1 0 2.5 18.2 1.5 22M26.8 32c1.4-6.7 5-22.4 9.7-22.2 2 0 2 3.3 1.8 4.2A19.4 19.4 0 0 1 50.1 1.5c1.3-.5 2.9-.8 4 0 1.2.6 1.7 2 1.5 3.3 0 1.3-.6 2.4-1.2 3.6-2.2 4.5-6.3 10.5-9 14.7 3.5-2.5 5.1-3 7-2.7 1.7.2 2.6 1.9 2.7 3.4 0 1.6-.6 3-1.4 4.4-3 5.6-7 10.4-11.9 14.3 1.4.2 3.1-1 4 .1.2.3.3.7.3 1 0 1.6-1.2 3-2.4 4-3 2.6-6.4 4.9-10 6.4"/></g><defs><clipPath id="a"><path fill="#fff" d="M0 0h57v99H0z"/></clipPath></defs></svg>