<svg xmlns="http://www.w3.org/2000/svg" width="639" height="607" fill="none"><g clip-path="url(#a)"><path fill="#072C4E" d="M518.3 500.8h-20.6l2.7 7.2c-4.4 1.5-14.5 4.8-19 6.1-4.3 1.2-5.4 6.1-2 8.4 1.3 1 3.2 1.4 5 1.4l30.9-.1c4.2 0 7-1.1 7.6-4.8.2-.8.1-1.7-.1-2.5l-4.5-15.7ZM402 500.9h-21.9l2.4 7.1c-4.4 1.5-14.8 5-19.3 6.2-4.2 1.2-5.4 6.1-2 8.4 1.4 1 3.3 1.3 5 1.3h33.5c5 0 8.5-5.1 6.8-9.8l-4.5-13.2Z"/><path stroke="#082C4E" stroke-linecap="round" stroke-linejoin="round" stroke-width="1.2" d="M472 298.3s14.8 41.9 28 85c6 19.3 26.5 92.4 32.7 110.3 1.2 3.3-1.2 7-4.6 7h-40.6c-4.3 0-8.9-3.4-10.2-7.5-28.5-90.4-45-176.6-45-176.6l-40 68.1a6 6 0 0 0-.6 4.4c3 12.8 17.8 75.4 26.7 105.5.8 3-1.3 6-4.4 6 0 0 0 0 0 0h-38.4c-3 0-6.2-2.4-7.1-5.3a1095.3 1095.3 0 0 1-24-99.6c-2.8-13.6-.1-20.7 10.7-36.6 12.4-18.2 42.5-66.7 45.9-70"/><path fill="#072C4E" d="M178.8 501.1h-20.6l-.4 5.9c-4.4 1.4-16.1 5.2-20.6 6.5-4.3 1.2-5.4 6.1-2 8.4 1.4 1 3.4 1.3 5.2 1.3h29.4c4.9 0 7.9-1.5 7.8-6.3l1.2-15.8ZM284.8 500.5h22l5.7 6.5c4.5 1.4 16.2 5.2 20.7 6.5 4.2 1.2 5.4 6.1 2 8.4a9.2 9.2 0 0 1-5.1 1.3h-33.3c-4.8 0-7.4-2-8.3-6l-3.7-16.7Z"/><path stroke="#082C4E" stroke-linecap="round" stroke-linejoin="round" stroke-width="1.2" d="M267.7 330c22.3 41.5 55.4 120.7 64.6 162.9.8 3.5-1.9 7.6-5.5 7.6h-50.6c-2.8 0-6-3.5-6.3-6.3-7.1-47.2-55-162-62-185.4 0 0-7.9 146.2-8.4 181.8 0 5.2-3.5 10.6-8.7 10.6h-42c-5.8 0-10.2-5-9.4-10.7 9.9-71.9 16.7-151.3 26-194.8M239.4 292.6c3.6 6.4 8.9 13.5 12.2 17.6M127.2 522.2c118.4 2.5 217.8 1.4 217.8 1.4M364.9 522.8c16.7.4 30.5.5 44.5.7 85.3 1 121.8.1 121.8.1"/><path stroke="#092C4E" stroke-linejoin="round" stroke-width="28.7" d="M299.6 164.8s22.6 32.4 53.2 48.4c29.9 15.6 68.3 15.9 70 15.9"/><path stroke="#FC0" stroke-width="26.4" d="M299.6 164.8s22.6 32.4 53.2 48.4c29.9 15.6 68.3 15.9 70 15.9"/><path fill="#FC0" d="m308.9 153.3-24.5 19.2 3.7 2.6 24.3-15.9-3.5-6Z"/><path stroke="#082C4E" stroke-linecap="round" stroke-linejoin="round" stroke-width="1.2" d="M296.4 165.6c-3.7-.8-7.6-8.3-8.7-11.6-.8-2.5-.2-4.5 2-5.5 3.3-1.4 7.5 2.4 8.2 3.2"/><path stroke="#082C4E" stroke-linecap="round" stroke-linejoin="round" stroke-width="1.2" d="M295.9 155.8c.8.9 2.7 4 3.1 5.1M286.8 152.5c-4-.8-4.7 2.8-4.4 4.7.6 4.9 5 11 7.6 13.4.7.7 2 .8 3 .5 1-.4 1.6-1.5 1.3-2.5"/><path stroke="#082C4E" stroke-linecap="round" stroke-linejoin="round" stroke-width="1.2" d="M282 156.4c-3.2-.1-4 3.3-3.5 6 1 4.6 4.6 8.4 6.8 10 1 .7 4 1.4 4.9-1.2M313.6 157s-2.8-2.4-9.6-12.1c-3.6-5.2-5.6-8.2-7.4-10-2.4-2.2-4.5-3-5.6-1.7-1.3 1.4 0 6.1 1.8 9.4 2.9 6 10.2 17 12.3 19.6"/><path stroke="#082C4E" stroke-linecap="round" stroke-linejoin="round" stroke-width="1.2" d="M313.6 166c-3-2.4-13.4-5.1-15.8-5-3 0-3 3.3-.7 5.2 2.8 2.4 7.7 3.7 8 3.7 1.2 0-5 1.7-5.6 5.8"/><path stroke="#092C4E" stroke-linejoin="round" stroke-width="28.7" d="M515.5 353.7s25.4-36.6 10.1-73.3c-14.9-36-57-44.2-58.9-44.5"/><path stroke="#FC0" stroke-width="26.4" d="M515.5 353.7s25.4-36.6 10.1-73.3c-14.9-36-57-44.2-58.9-44.5"/><path fill="#2F97F3" d="m464.6 299.6-57.2-9a5.8 5.8 0 0 1-4.9-6.6l9.3-59.4a17.2 17.2 0 0 1 19.7-14.4l34.7 5.4a17.2 17.2 0 0 1 14.3 19.7l-9.2 59.4a5.8 5.8 0 0 1-6.7 4.9Z"/><path fill="#fff" d="m490 458.6-89.7-40L453 300.4l89.6 40L490 458.7Z"/><path stroke="#082C4E" stroke-linecap="round" stroke-linejoin="round" stroke-width="1.2" d="m426.2 402.2 44.8-57.7c1-1.3 2-2.7 3.7-3.1 1.6-.5 3.3.2 4.8.8l16.3 6.4M427.5 404.9c3.1 1 13.2 5.3 13.2 5.3s19.3-23.8 19.8-24c.4 0 13 5.2 12.8 5.7-3 10-5 20.5-7.2 27.4-.1.4 16.2 7.7 16.5 7.6.5-.2 1-1.9 1-2.4 2.1-9.3 11.2-53.6 11.5-60.7"/><path stroke="#082C4E" stroke-linecap="round" stroke-linejoin="round" stroke-width="1.2" d="M467.5 374.7s7.3 3.4 9.3 4.1c.5.2 4.2-22.7 4.2-22.7l-13.5 18.6ZM502.1 344.5c-3.2 5-12.4 14.2-9.6 16.4 3.2 2.5 9.8-5.2 12.7-9M499.8 369.4c0 2.7 3.3 2.1 5.2 1 5-2.8 8.4-8.3 10.9-12.3"/><path stroke="#082C4E" stroke-linecap="round" stroke-linejoin="round" stroke-width="1.2" d="M506.3 349.7c-1.9 3.4-2.3 5.3-6.8 11.2-2.5 3.1-6 7.4-3.8 8.6 4.5 2.6 12-8.1 15.4-14.3M505.5 372.2c.4.7 1.7 1.6 3.9.8a19 19 0 0 0 9.2-7.5"/><path stroke="#092C4E" stroke-width="1.2" d="M502 344.3s8-9.9 10.1-22.7M540.2 337.8s-2.8 10.9-7.5 18.5M402.4 243.7s4 1 17.2-.5M410 212.5s4.3.6 16.1 0M479.8 257s-4.2-2.8-13.7-4M484.7 224.6s-8.5-3.6-16.7-4"/><path stroke="#082C4E" stroke-linecap="round" stroke-linejoin="round" stroke-width="1.2" d="M447.2 193.4s-5.5 3.7-11.6.7M439.7 184.7l-3.2 5 2.7 1.5"/><path stroke="#082C4E" stroke-linecap="round" stroke-linejoin="round" stroke-width="1.2" d="M439.4 183.9a4 4 0 1 1-8.1-.6 4 4 0 0 1 8 .6ZM449.5 185a4 4 0 1 1-8.1-.5 4 4 0 0 1 8 .5Z"/><path fill="#2F97F3" d="M439.7 184.4h1.7-1.7Z"/><path stroke="#082C4E" stroke-linecap="round" stroke-linejoin="round" stroke-width="1.2" d="M439.7 184.4h1.7"/><path fill="#FD6470" d="M454 170.3a12.5 12.5 0 0 0-22.6 6.7l16.3 1.1c1.5 3.2 4.6 4.2 7.2 4.8 2.6.5 3.8 1.8 4.1 3.5l.2 1.3c.6-.2 1.2-.3 2-.2a4.6 4.6 0 0 1 2 8.5 10.2 10.2 0 0 0 5.3 1.9 18.9 18.9 0 0 0-14.6-27.6Z"/><path stroke="#082C4E" stroke-linecap="round" stroke-linejoin="round" stroke-width="1.2" d="M467.7 199a19.6 19.6 0 0 1-35.7-12.7M205.1 178.1l5.2 3.5-2.2 2.8M210.5 186.7s-4.6 3.6-9.7 2.1c0 0 .8 6.7 7.2 5.4"/><path stroke="#082C4E" stroke-linecap="round" stroke-linejoin="round" stroke-width="1.2" d="M208.6 174.4a19.6 19.6 0 0 1-30 25.2"/><path fill="#2F97F3" d="M208.2 173a20.2 20.2 0 0 0-29.1-1.5 9 9 0 0 0-13.8.9 9 9 0 0 0 7.5 14.4 20 20 0 0 0 4.6 12.1c5.4-2 7.9-4.1 9-6h-.5a4.6 4.6 0 1 1 1.9-9c.4-1.1 1.2-2.2 2.6-3.2 4.4-3.3 5.6-6.4 5.5-9 3.8 1.7 8.1 2.2 12.3 1.3ZM63.9 478c0 9.9 6.2 18.3 14.9 21.6A16.3 16.3 0 0 0 70 514v8.4H109V514c0-6.2-3.5-11.7-8.7-14.4 8.7-3.3 15-11.7 15-21.6v-23.6H63.8V478Z"/><path stroke="#082C4E" stroke-linecap="round" stroke-linejoin="round" stroke-width="1.2" d="M73.1 420c5.7 11.6 9.9 24 12.4 36.7M90.1 455.6a103.6 103.6 0 0 1 17.2-40.7"/><path stroke="#082C4E" stroke-linecap="round" stroke-linejoin="round" stroke-width="1.2" d="M81 454c-2.8-3.4-5.4-7-7.9-10.7-1.6-2.5-5.6-9.5-2.4-10.3 1.9-.5 4.6 3.2 6.4 5.4C72 431 67 423 66.9 414c0-3.3 1-7 3.9-8.6 3.6-2.1 7 1.5 8.8 4.4 5.1 9 4 15.4 5.1 25.6.3-.8.4-3.3 1.7-3.3 4 0 2.5 18 1.5 21.9M90.3 433.2c1.4-6.7 5-22.3 9.5-22 2 0 2 3.2 1.9 4.1a19.4 19.4 0 0 1 11.7-12.4c1.3-.5 2.8-.8 4 0 1 .6 1.5 2 1.4 3.2a10 10 0 0 1-1.2 3.6c-2.2 4.5-6.2 10.4-9 14.6 3.7-2.5 5.2-3 7.1-2.8 1.5.3 2.5 2 2.6 3.5 0 1.5-.7 3-1.4 4.3-3 5.5-7 10.3-11.8 14.2 1.4.2 3.2-1 4 0 .2.3.3.7.3 1 0 1.6-1.2 3-2.3 4-3 2.7-6.4 4.8-10 6.4"/><path fill="#FD6470" d="M492.5 138.5h43.3v59.2h-43.3v-59.2Z"/><path stroke="#082C4E" stroke-linecap="round" stroke-linejoin="round" stroke-width="1.2" d="M498.4 144.7H530v46.4h-31.5v-46.4Z"/><path stroke="#082C4E" stroke-linecap="round" stroke-linejoin="round" stroke-width="1.2" d="M519 163a8 8 0 1 1-16 0 8 8 0 0 1 16 0ZM514.6 180.6a6 6 0 1 1 12 0M272.8 323.4c32.4-15.6 58.4-33.7 49.7-65.9-13.2-49.3-94.5-40.9-94.5-40.9"/><path stroke="#082C4E" stroke-linecap="round" stroke-linejoin="round" stroke-width="1.2" d="M234.8 247s45.5-6 57 11.8c8 12.3 3.4 24.8-14.4 35-7.7 4.5-20.1 8.2-27.9 12.8M264.3 322.4a31 31 0 0 0-4 11.5c0 .5.1 1.4.5 1.8.6.6 1.7.2 2.5-.4"/><path stroke="#082C4E" stroke-linecap="round" stroke-linejoin="round" stroke-width="1.2" d="M254.4 307.7a55.4 55.4 0 0 0-6.3 6.8 18.6 18.6 0 0 0-3.6 8.4c0 .7 0 1.4.5 1.8.3.2.6.2 1 .1 1.1-.2 2-1.2 2.7-2.2 2.2-2.8 4.5-5.4 6.9-8a47.7 47.7 0 0 0-6 11.8c-.3.5-.4 1.1-.3 1.7 0 .5.4 1.1 1 1.3.4.2 1 0 1.5-.2 2.1-1 3.7-3 5-5.1l3.7-6a35.8 35.8 0 0 0-6.1 13c-.3 1.6 0 2.8.9 3.3 1 .6 2.2-.6 2.5-1 2.6-3 4.6-8 6.4-11"/><path stroke="#092C4E" stroke-linejoin="round" stroke-width="28.7" d="M159.5 123.4s-65.7 18.6-58.3 67.4c7.2 47.9 73 47.1 75.6 47"/><path stroke="#FC0" stroke-width="26.4" d="M159.5 123.4s-65.7 18.6-58.3 67.4c7.2 47.9 73 47.1 75.6 47"/><path fill="#fff" d="m256 97.7-1.6-4.8a3.5 3.5 0 0 0-2.9-2.5l-43.7-6.3c-1.4-.2-2.9 0-4.2.7l-25.6 14a8 8 0 0 0-10.2-4.7l-6.7 2.5a8 8 0 0 0-4.9 10.2l12.5 34.8a8 8 0 0 0 10.3 4.8l6.7-2.5a8 8 0 0 0 5.3-7.8l27.8-2.8a7 7 0 0 0 4-1.8l32.2-30.2c1-1 1.3-2.3 1-3.6Z"/><path stroke="#082C4E" stroke-linecap="round" stroke-linejoin="round" stroke-width="1.2" d="m255.2 95.6-34 10.7M210.2 109.7a5.8 5.8 0 1 1 11-3.4 5.8 5.8 0 0 1-11 3.4Z"/><path fill="#FC0" d="m153.8 110.6 7.6 27.2 3.9-.2-8.5-29-3 2Z"/><path stroke="#082C4E" stroke-linecap="round" stroke-linejoin="round" stroke-width="1.2" d="M152.7 122c4-2 10-3.8 14.5-6.4 4.4-2.5 3-4.8-1-4.3a71 71 0 0 0-15.9 4.7M155 128.2c1.3-.9 19.3-6.5 17.4-9.7-2-3.1-17 3-19.6 3.7M157.4 133.3c12.4-5.1 17.7-7 16.6-9.1-1.2-2.2-12 1.8-18.9 4"/><path fill="#FD6470" d="M241.2 281.5a17.2 17.2 0 0 0-18-15.8c6.3-3 10.4-9.8 9.7-17.2l-2.2-22.8c-1-9.5-9.3-16.4-18.8-15.5l-32.3 3.1c-9.5 1-16.4 9.3-15.5 18.8l2.2 22.8c.7 7 5.3 12.5 11.5 14.6a17.2 17.2 0 0 0 5.1 34l42.5-3.5c9.5-.7 16.5-9 15.8-18.5Z"/></g><defs><clipPath id="a"><path fill="#fff" d="M.4 0H639v607H.4z"/></clipPath></defs></svg>