<svg xmlns="http://www.w3.org/2000/svg" width="100" height="100" fill="none"><path fill="#F2EAE2" d="M50 98.5a48.5 48.5 0 1 0 0-97 48.5 48.5 0 0 0 0 97Z"/><path stroke="#082C4E" stroke-linecap="round" stroke-linejoin="round" stroke-miterlimit="10" stroke-width="1.5" d="M70.4 65.2s-14.8 12.7-34 6.2M45 42l-7.5 16.3 8.5 3.2"/><path stroke="#082C4E" stroke-linecap="round" stroke-linejoin="round" stroke-miterlimit="10" stroke-width="1.5" d="M35.3 49.7a12 12 0 1 0-3-23.9 12 12 0 0 0 3 23.9ZM65.5 49.4a12 12 0 1 0-3-23.9 12 12 0 0 0 3 23.9ZM46.8 38.4 52 38"/></svg>