<svg xmlns="http://www.w3.org/2000/svg" width="120" height="100" fill="none"><path fill="#FC0" fill-rule="evenodd" d="M50.4 68.7a15 15 0 0 0 30 0V29.5a15 15 0 0 0-30 0v39.2Zm12.1-39.2a2.8 2.8 0 0 1 5.7 0v39.2a2.8 2.8 0 0 1-5.7 0V29.5Zm-26 19.2s10.2-4.3 10.2-17.6c0-12.8-9.3-16-19.4-16H16v68h11.3V56l.5 1.9L38 83.3h13.6l-15-34.6Zm-1.1-16.5c0 8.8-8 10.6-8 10.6V23.5s8-.8 8 8.7ZM96 15.4H83.8v68H96v-68Z" clip-rule="evenodd"/><path stroke="#082C4E" stroke-linecap="round" stroke-linejoin="round" stroke-miterlimit="10" stroke-width="2" d="M101 87.8 12 88V12h89v75.8Z"/><path fill="#082C4E" d="M15 85H9v6h6v-6ZM104 85h-6v6h6v-6ZM104 9h-6v6h6V9ZM15 9H9v6h6V9ZM63 9h-6v6h6V9ZM62 86h-4v4h4v-4Z"/></svg>