<svg xmlns="http://www.w3.org/2000/svg" width="115" height="24" fill="none"><g clip-path="url(#a)"><path fill="#fff" fill-rule="evenodd" d="M8.5 10.2A5.1 5.1 0 0 1 8.5 0a5.1 5.1 0 0 1 0 10.2Zm0-7.3a2.2 2.2 0 1 0 0 4.4c1.2 0 2.1-1 2.1-2.2 0-1.2-1-2.2-2.1-2.2ZM13 24l-4-7.4c-.4 1-.9 1.8-1.5 2.6A11.2 11.2 0 0 1 1.3 23l-.6-2.8a8.2 8.2 0 0 0 4.5-2.8 7.8 7.8 0 0 0 1.7-5l2.8-.7 6 11L13 24Zm43.4-3.3c-.5.7-1 1.2-1.8 1.6-.8.4-1.6.6-2.4.6a6.8 6.8 0 0 1-5-2.1 7.1 7.1 0 0 1-1.9-5 7.3 7.3 0 0 1 2-5c.5-.6 1.3-1.1 2.1-1.5.9-.4 1.8-.6 2.8-.6.8 0 1.6.2 2.4.6.7.4 1.3 1 1.8 1.6v-8h3.1v19.6h-3.1v-1.8Zm-4-.6a3.7 3.7 0 0 0 2.9-1.3c.3-.4.6-.8.8-1.4a4.8 4.8 0 0 0 0-3.3l-.8-1.3a3.7 3.7 0 0 0-2.9-1.3 3.7 3.7 0 0 0-2.9 1.3 4 4 0 0 0-.8 1.3 5 5 0 0 0 0 3.3 4 4 0 0 0 2 2.3c.5.2 1 .4 1.7.4ZM34 9H31v13.4H34v-7a5 5 0 0 1 .8-2.8c.5-.8 1.4-1.2 2.4-1.2.6 0 1 .1 1.4.3.4.2.7.5 1 .9.2.3.3.7.4 1.3l.1 1.6v7h3.2v-8c0-1 0-1.8-.2-2.4-.1-.6-.3-1.1-.7-1.6A4 4 0 0 0 41 9.2c-.7-.3-1.5-.5-2.5-.5s-1.9.2-2.6.6c-.8.4-1.4 1-1.8 1.7V9Zm-9 0H28v13.4H25V9.1Zm37.3 0h3.1v13.4h-3.1V9.1ZM77.5 14a3 3 0 0 0-.9-1.8c-.4-.4-1.2-.7-2.3-.7-.6 0-1.1.1-1.6.4-.4.2-.8.5-1 1a4 4 0 0 0-.8 1.3 6 6 0 0 0 0 3.2l.7 1.4c.3.4.7.7 1.2 1 .5.2 1 .3 1.7.3 1 0 1.6-.2 2-.6.5-.4.8-1 1-1.6h3.2l-.7 2c-.3.6-.7 1-1.2 1.5s-1.2.8-2 1a8.1 8.1 0 0 1-5.4-.1 6.2 6.2 0 0 1-3.4-3.9 8.2 8.2 0 0 1 0-5.2c.3-.9.7-1.6 1.3-2.3a6.2 6.2 0 0 1 5-2.2c1 0 2 .2 2.8.5.8.3 1.4.7 1.9 1.2s.9 1 1.2 1.7c.2.6.4 1.2.4 1.9h-3.1Zm5.9-5h3.1v13.5h-3.1V9.1Zm27.6 6 1.4.5 1.1.7a3 3 0 0 1 1.2 2.6c0 .6-.2 1.3-.5 1.8-.2.5-.6 1-1.1 1.3l-1.7.7a8.4 8.4 0 0 1-4.2 0l-1.7-1c-.5-.4-1-1-1.2-1.5-.3-.6-.5-1.3-.5-2.1h3c0 .9.3 1.5.8 1.8.5.4 1.1.6 1.9.6.6 0 1.1-.1 1.5-.4.4-.2.7-.6.7-1.2 0-.3-.1-.5-.3-.7l-.8-.6-1.3-.5a48 48 0 0 1-3.1-1.2c-.4-.2-.8-.4-1-.7l-.7-1a4 4 0 0 1-.2-1.5c0-.6.1-1.2.4-1.6.2-.5.6-1 1-1.3l1.7-.7c.6-.2 1.2-.3 2-.3a5.7 5.7 0 0 1 3.5 1.3c.5.4.9 1 1.1 1.5.3.5.4 1.1.4 1.8h-3c0-.6-.2-1.1-.5-1.5-.4-.4-.9-.6-1.7-.6-.5 0-1 .1-1.3.4-.4.2-.6.6-.6 1s0 .6.2.8l.7.5 1.2.4 1.6.6ZM28.8 5a2.3 2.3 0 1 1-4.5 0 2.3 2.3 0 0 1 4.5 0Zm35 2.3a2.3 2.3 0 1 0 0-4.5 2.3 2.3 0 0 0 0 4.5Zm23.4-2.2a2.3 2.3 0 1 1-4.5 0 2.3 2.3 0 0 1 4.5 0Zm11.4 11c0 2.7-1.3 3.7-3.1 3.7s-3-1-3-3.6V9h-3.2V16.5c0 4.2 2.7 6.3 6.2 6.3s6.2-2 6.2-6.3V9.1h-3.1v7Z" clip-rule="evenodd"/></g><defs><clipPath id="a"><path fill="#fff" d="M.7 0h114v24H.7z"/></clipPath></defs></svg>