<svg width="16" height="24" viewBox="0 0 16 24" fill="none" xmlns="http://www.w3.org/2000/svg">
<path fill-rule="evenodd" clip-rule="evenodd" d="M8.45994 10.185C5.65476 10.185 3.36711 7.8975 3.36711 5.0925C3.36711 2.2875 5.65476 0 8.45994 0C11.2652 0 13.5528 2.2875 13.5528 5.0925C13.5528 7.8975 11.2652 10.185 8.45994 10.185ZM8.45994 2.91C7.25986 2.91 6.2773 3.8925 6.2773 5.0925C6.2773 6.2925 7.25986 7.275 8.45994 7.275C9.66002 7.275 10.6426 6.2925 10.6426 5.0925C10.6426 3.885 9.66002 2.91 8.45994 2.91ZM13.0425 24L9.04472 16.635C8.64719 17.565 8.11466 18.4425 7.46962 19.23C5.91702 21.1275 3.73437 22.4775 1.32671 23.025L0.666672 20.19C2.42179 19.785 4.01939 18.795 5.15196 17.4075C6.32954 15.975 6.94458 14.2425 6.94458 12.405L9.74226 11.7225L15.6677 22.635L13.0425 24Z" fill="#3098F3"/>
</svg>
